HIERARCHY
ROOT Hips
{
	OFFSET -0.001795 -0.223333 0.028219
	CHANNELS 6 Xposition Yposition Zposition Zrotation Yrotation Xrotation 
	JOINT LeftUpLeg
	{
		OFFSET 0.069520 -0.091406 -0.006815
		CHANNELS 3 Zrotation Yrotation Xrotation
		JOINT LeftLeg
		{
			OFFSET 0.034277 -0.375199 -0.004496
			CHANNELS 3 Zrotation Yrotation Xrotation
			JOINT LeftFoot
			{
				OFFSET -0.013596 -0.397961 -0.043693
				CHANNELS 3 Zrotation Yrotation Xrotation
				JOINT LeftToe
				{
					OFFSET 0.026358 -0.055791 0.119288
					CHANNELS 3 Zrotation Yrotation Xrotation
					End Site
					{
						OFFSET 0.000000 0.000000 0.000000
					}
				}
			}
		}
	}
	JOINT RightUpLeg
	{
		OFFSET -0.067670 -0.090522 -0.004320
		CHANNELS 3 Zrotation Yrotation Xrotation
		JOINT RightLeg
		{
			OFFSET -0.038290 -0.382569 -0.008850
			CHANNELS 3 Zrotation Yrotation Xrotation
			JOINT RightFoot
			{
				OFFSET 0.015774 -0.398415 -0.042312
				CHANNELS 3 Zrotation Yrotation Xrotation
				JOINT RightToe
				{
					OFFSET -0.025372 -0.048144 0.123348
					CHANNELS 3 Zrotation Yrotation Xrotation
					End Site
					{
						OFFSET 0.000000 0.000000 0.000000
					}
				}
			}
		}
	}
	JOINT Spine
	{
		OFFSET -0.002533 0.108963 -0.026696
		CHANNELS 3 Zrotation Yrotation Xrotation
		JOINT Spine1
		{
			OFFSET 0.005487 0.135180 0.001092
			CHANNELS 3 Zrotation Yrotation Xrotation
			JOINT Spine2
			{
				OFFSET 0.001457 0.052922 0.025425
				CHANNELS 3 Zrotation Yrotation Xrotation
				JOINT Neck
				{
					OFFSET -0.002778 0.213870 -0.042857
					CHANNELS 3 Zrotation Yrotation Xrotation
					JOINT Head
					{
						OFFSET 0.005152 0.064970 0.051349
						CHANNELS 3 Zrotation Yrotation Xrotation
						End Site
						{
							OFFSET 0.000000 0.000000 0.000000
						}
					}
				}
				JOINT LeftShoulder
				{
					OFFSET 0.078845 0.121749 -0.034090
					CHANNELS 3 Zrotation Yrotation Xrotation
					JOINT LeftArm
					{
						OFFSET 0.090977 0.030469 -0.008868
						CHANNELS 3 Zrotation Yrotation Xrotation
						JOINT LeftForeArm
						{
							OFFSET 0.259612 -0.012772 -0.027456
							CHANNELS 3 Zrotation Yrotation Xrotation
							JOINT LeftHand
							{
								OFFSET 0.249234 0.008986 -0.001171
								CHANNELS 3 Zrotation Yrotation Xrotation
								End Site
								{
									OFFSET 0.000000 0.000000 0.000000
								}
							}
						}
					}
				}
				JOINT RightShoulder
				{
					OFFSET -0.081759 0.118833 -0.038615
					CHANNELS 3 Zrotation Yrotation Xrotation
					JOINT RightArm
					{
						OFFSET -0.096012 0.032551 -0.009143
						CHANNELS 3 Zrotation Yrotation Xrotation
						JOINT RightForeArm
						{
							OFFSET -0.253742 -0.013329 -0.021401
							CHANNELS 3 Zrotation Yrotation Xrotation
							JOINT RightHand
							{
								OFFSET -0.255298 0.007772 -0.005559
								CHANNELS 3 Zrotation Yrotation Xrotation
								End Site
								{
									OFFSET 0.000000 0.000000 0.000000
								}
							}
						}
					}
				}
			}
		}
	}
}
MOTION
Frames: 13
Frame Time: 0.050000
0.000000 0.975104 0.000000 -1.778845 -1.769997 -16.296111 14.065780 0.542035 -3.275177 -4.676448 0.504631 -5.797790 19.935977 22.932757 94.879413 0.000000 0.000000 0.000000 6.452315 1.136081 -6.536238 -0.051037 -0.067685 -1.828681 -39.364921 -28.150703 103.305690 0.000000 0.000000 0.000000 1.925506 2.190039 -31.382085 9.891819 -8.559106 15.191543 -13.902218 6.821989 17.494325 8.922638 5.992295 -100.482016 0.000000 0.000000 0.000000 -50.578168 -21.680830 12.848455 -20.118756 -2.669877 -2.209806 -16.542612 4.085604 -0.870803 0.000000 0.000000 0.000000 55.652955 21.994747 20.988232 16.155594 12.626627 -1.507959 15.497970 -8.065158 -1.762603 0.000000 0.000000 0.000000 
0.002916 0.968504 -0.007827 -2.054014 -2.450092 -18.019625 13.620900 0.565507 -2.190145 -5.057840 0.539445 -5.747487 23.240264 23.882149 95.066903 0.000000 0.000000 0.000000 5.748674 1.040095 -6.106815 0.068116 -0.038306 -0.776695 -37.025615 -27.402076 103.083009 0.000000 0.000000 0.000000 -0.564324 1.373292 -31.053386 10.249907 -8.257669 12.803984 -10.552381 7.281184 21.750626 0.694210 4.317689 -100.860450 0.000000 0.000000 0.000000 -51.984800 -22.668302 14.547989 -19.571038 -4.342210 -2.217038 -16.670618 2.579327 -0.620694 0.000000 0.000000 0.000000 54.282746 23.627097 22.309959 14.435652 15.057172 -1.541694 15.316742 -8.396109 -1.790627 0.000000 0.000000 0.000000 
0.005433 0.963979 -0.015902 -2.275852 -2.538298 -19.407273 13.848829 0.597384 -1.188533 -5.319452 0.557514 -5.865022 24.283668 24.122238 95.116720 0.000000 0.000000 0.000000 5.649715 0.916176 -5.201249 0.334962 -0.056674 -0.524658 -37.342070 -27.429316 103.272230 0.000000 0.000000 0.000000 -0.739019 1.299313 -30.910135 10.084376 -8.391228 14.240457 -10.183844 7.300923 20.473002 0.135948 4.317946 -98.854492 0.000000 0.000000 0.000000 -52.127797 -23.186917 15.230660 -19.471533 -5.322097 -2.044499 -16.966762 2.151087 -0.539768 0.000000 0.000000 0.000000 53.916630 24.299754 23.055342 14.059364 15.800446 -1.467022 15.325765 -7.955665 -1.707900 0.000000 0.000000 0.000000 
0.007514 0.958869 -0.024942 -2.448889 -2.705257 -20.545798 13.998866 0.632776 -0.590568 -5.451401 0.564758 -6.183982 25.233622 24.340615 95.305455 0.000000 0.000000 0.000000 5.631412 0.882868 -4.877915 0.394174 -0.053381 -0.258088 -36.916917 -27.201675 103.549884 0.000000 0.000000 0.000000 -0.663226 1.300605 -30.299316 9.997096 -8.560870 14.894452 -10.271837 7.771152 19.559595 0.608942 4.433638 -97.761125 0.000000 0.000000 0.000000 -52.368235 -23.824485 15.753445 -19.189623 -5.833379 -1.893920 -17.010715 1.486810 -0.406805 0.000000 0.000000 0.000000 54.209609 24.865588 23.982458 13.213466 16.424622 -1.435587 15.313253 -7.234766 -1.589289 0.000000 0.000000 0.000000 
0.009072 0.955901 -0.035225 -2.650683 -2.727003 -19.941563 14.204632 0.666357 -1.949414 -5.441462 0.553599 -6.801184 24.182445 24.020811 95.507873 0.000000 0.000000 0.000000 5.506633 1.194131 -7.056828 0.713869 -0.088379 -0.279145 -37.869218 -27.268337 104.159033 0.000000 0.000000 0.000000 -0.765841 1.248900 -29.998749 13.359220 -12.131025 17.608567 -16.482812 9.723859 14.053666 3.170873 5.228398 -94.964888 0.000000 0.000000 0.000000 -49.816965 -23.903103 14.094234 -20.437005 -4.999776 -1.685075 -16.645394 0.352611 -0.149174 0.000000 0.000000 0.000000 56.185677 25.239438 26.332883 12.660711 16.761672 -1.370083 15.237321 -6.216679 -1.418319 0.000000 0.000000 0.000000 
0.010450 0.953060 -0.046443 -2.878077 -3.039021 -17.626108 14.441021 0.751241 -5.866083 -5.183808 0.538258 -6.806939 22.849432 23.655067 96.331407 0.000000 0.000000 0.000000 5.305377 1.696225 -10.709264 0.902014 -0.127135 -0.909669 -38.838176 -27.457058 104.052131 0.000000 0.000000 0.000000 -0.331129 1.390991 -28.977485 15.789413 -20.269568 34.861986 -27.956193 7.680320 -13.412346 7.770225 7.718734 -76.068081 0.000000 0.000000 0.000000 -43.517079 -21.736566 9.321293 -25.232430 -0.726141 -0.963553 -17.429145 0.653033 -0.077290 0.000000 0.000000 0.000000 58.459188 23.736400 27.736138 15.861892 14.763693 -0.548393 15.025233 -5.874835 -1.305278 0.000000 0.000000 0.000000 
0.010785 0.946137 -0.058445 -2.942598 -2.903040 -13.394047 14.057521 0.785844 -12.261543 -4.092504 0.468357 -6.869640 20.212845 22.980348 97.329771 0.000000 0.000000 0.000000 4.986257 2.566307 -17.011235 0.580821 -0.098527 -1.045147 -39.060307 -27.733684 103.434683 0.000000 0.000000 0.000000 -0.217853 1.321133 -26.961759 1.384170 -61.892397 105.414872 -64.823363 -20.856672 -67.584270 11.748517 5.685397 -73.591344 0.000000 0.000000 0.000000 -10.718490 -17.866798 7.639875 -49.935705 -16.823477 4.487242 -17.286194 -3.739761 0.271279 0.000000 0.000000 0.000000 36.218994 28.078794 20.450451 38.047307 27.610818 4.863821 12.460376 -5.119561 -0.914393 0.000000 0.000000 0.000000 
0.008835 0.938807 -0.069780 -2.865902 -2.843161 -5.036436 13.832327 0.921377 -23.410072 -2.503932 0.368219 -6.534059 14.653878 21.854156 97.754631 0.000000 0.000000 0.000000 4.376758 4.080757 -27.988194 0.432098 -0.066116 -0.586312 -39.301490 -28.143905 102.863060 0.000000 0.000000 0.000000 -1.830091 0.985617 -27.395341 -153.093966 -68.853696 -76.157035 -119.584259 -37.871519 -44.951741 18.464061 -7.451120 -87.547692 0.000000 0.000000 0.000000 -9.116091 -24.847020 4.050106 -52.276383 -21.696521 6.242920 -13.617360 -6.013907 0.536817 0.000000 0.000000 0.000000 11.982563 16.437145 42.489705 21.441340 64.503174 9.836328 9.930124 1.227900 0.377189 0.000000 0.000000 0.000000 
0.004394 0.931231 -0.078067 -2.466565 -2.642393 6.507050 13.741881 1.291083 -37.504982 -0.546648 0.236248 -5.887705 7.483988 20.403673 96.754055 0.000000 0.000000 0.000000 2.475088 5.571700 -41.667041 0.832218 -0.096604 -0.391499 -39.576485 -29.059022 101.741889 0.000000 0.000000 0.000000 -7.086613 0.151235 -28.728061 145.229978 30.014481 -55.167122 -176.213904 50.473003 -9.656648 31.603875 -12.732966 -98.603613 0.000000 0.000000 0.000000 -9.426662 -37.322327 -32.933659 -47.808515 15.267950 -9.160270 -15.881460 -2.628286 -1.271073 0.000000 0.000000 0.000000 0.443241 5.003985 94.006508 -78.831174 50.396297 -40.709549 1.796269 0.615302 0.032937 0.000000 0.000000 0.000000 
-0.002256 0.925024 -0.080896 -1.669014 -2.544863 18.120852 14.036301 2.053879 -50.646647 0.973620 0.113917 -5.059876 0.749041 18.670752 94.459040 0.000000 0.000000 0.000000 -0.534478 6.142228 -54.385871 1.938663 -0.209327 -0.712991 -39.647967 -30.200613 100.372635 0.000000 0.000000 0.000000 -16.569452 -0.091092 -24.846895 68.385505 56.914108 -118.251276 -14.902357 72.148885 158.120263 10.037951 0.580493 -101.237254 0.000000 0.000000 0.000000 -29.102101 -28.733106 4.390364 -37.513958 -8.468939 -25.543732 -14.247311 -3.721952 -1.005283 0.000000 0.000000 0.000000 24.364135 28.909943 0.092645 40.034468 15.337681 -19.426809 8.141142 -0.096103 -3.316077 0.000000 0.000000 0.000000 
-0.009521 0.922068 -0.077034 -0.791287 -2.574219 25.675857 14.581334 2.875004 -58.603620 1.493021 0.048481 -4.335338 -3.374231 17.332318 92.622395 0.000000 0.000000 0.000000 -2.952951 5.841961 -61.851684 2.978963 -0.315297 -1.301514 -39.546761 -30.957428 99.584847 0.000000 0.000000 0.000000 -24.834204 1.948306 -15.983266 32.205083 43.432546 -149.337628 -20.514436 44.684915 147.370146 -4.271796 5.109922 -101.601111 0.000000 0.000000 0.000000 -40.876867 -26.293082 8.686716 -33.235540 -4.554261 -18.504926 -11.442769 -5.024892 -0.270285 0.000000 0.000000 0.000000 29.850288 18.519548 17.357044 34.335613 24.073446 -20.306189 6.885681 2.264523 -0.910480 0.000000 0.000000 0.000000 
-0.015878 0.920537 -0.067685 -0.004983 -2.733440 30.496822 15.054653 3.581764 -63.346358 1.610348 0.012947 -3.762597 -5.833248 16.427994 91.452862 0.000000 0.000000 0.000000 -4.597989 5.401928 -66.180387 3.685280 -0.382673 -1.726649 -39.562509 -31.511144 99.078024 0.000000 0.000000 0.000000 -29.904798 4.647202 -8.597646 16.269021 27.961346 -160.937394 -25.124397 24.749854 141.408642 -11.949006 7.341269 -98.823993 0.000000 0.000000 0.000000 -46.637186 -21.414257 16.142923 -31.903466 -5.806472 -17.173210 -9.438005 -5.019591 -0.339918 0.000000 0.000000 0.000000 31.655801 14.613849 14.257860 35.866172 16.420044 -21.573957 7.215056 3.526917 -0.270819 0.000000 0.000000 0.000000 
-0.020459 0.918947 -0.055037 0.633910 -3.053897 33.800652 15.456291 4.236032 -66.367186 1.558529 -0.005805 -3.302012 -7.415398 15.825429 90.719543 0.000000 0.000000 0.000000 -5.812632 5.037213 -69.007742 4.238573 -0.431477 -1.900862 -39.920036 -32.042498 98.729428 0.000000 0.000000 0.000000 -33.384781 6.993083 -3.772903 5.860370 12.892696 -165.835809 -30.990451 8.549738 140.073771 -15.129425 8.469840 -96.005488 0.000000 0.000000 0.000000 -48.876234 -16.746545 22.482552 -31.973057 -8.078439 -17.281151 -7.854493 -4.181538 -0.526318 0.000000 0.000000 0.000000 32.157776 13.892981 2.946833 37.989508 3.016628 -20.193573 8.125737 4.182091 0.231926 0.000000 0.000000 0.000000 
